<?xml version="1.0" encoding="UTF-8" standalone="no"?>
<!-- Generator: Adobe Illustrator 19.0.0, SVG Export Plug-In . SVG Version: 6.00 Build 0)  -->

<svg
   xmlns:dc="http://purl.org/dc/elements/1.1/"
   xmlns:cc="http://creativecommons.org/ns#"
   xmlns:rdf="http://www.w3.org/1999/02/22-rdf-syntax-ns#"
   xmlns:svg="http://www.w3.org/2000/svg"
   xmlns="http://www.w3.org/2000/svg"
   xmlns:sodipodi="http://sodipodi.sourceforge.net/DTD/sodipodi-0.dtd"
   xmlns:inkscape="http://www.inkscape.org/namespaces/inkscape"
   version="1.1"
   id="Capa_1"
   x="0px"
   y="0px"
   viewBox="0 0 512 512"
   style="enable-background:new 0 0 512 512;"
   xml:space="preserve"
   sodipodi:docname="003-luxury.svg"
   inkscape:version="0.92.3 (2405546, 2018-03-11)"><metadata
   id="metadata45"><rdf:RDF><cc:Work
       rdf:about=""><dc:format>image/svg+xml</dc:format><dc:type
         rdf:resource="http://purl.org/dc/dcmitype/StillImage" /></cc:Work></rdf:RDF></metadata><defs
   id="defs43" /><sodipodi:namedview
   pagecolor="#ffffff"
   bordercolor="#666666"
   borderopacity="1"
   objecttolerance="10"
   gridtolerance="10"
   guidetolerance="10"
   inkscape:pageopacity="0"
   inkscape:pageshadow="2"
   inkscape:window-width="1920"
   inkscape:window-height="1017"
   id="namedview41"
   showgrid="false"
   inkscape:zoom="0.4609375"
   inkscape:cx="-14.101695"
   inkscape:cy="256"
   inkscape:window-x="0"
   inkscape:window-y="30"
   inkscape:window-maximized="1"
   inkscape:current-layer="Capa_1" />


















<g
   id="g3767"
   transform="translate(0,-88.901)"><path
     id="path6"
     d="M 163.104,508.001 C 73.16,508.001 0,434.833 0,344.897 0,254.969 73.168,181.801 163.104,181.801 c 89.928,0 163.096,73.168 163.096,163.096 -0.008,89.936 -73.168,163.104 -163.096,163.104 z m 0,-294.192 C 90.816,213.809 32,272.609 32,344.897 c 0,72.288 58.816,131.104 131.104,131.104 72.288,0 131.096,-58.816 131.096,-131.104 0,-72.288 -58.808,-131.088 -131.096,-131.088 z"
     style="fill:#ffeaba"
     inkscape:connector-curvature="0" /><path
     id="path8"
     d="m 348.896,508.001 c -89.928,0 -163.096,-73.168 -163.096,-163.104 0,-89.928 73.168,-163.096 163.096,-163.096 89.936,0.008 163.104,73.168 163.104,163.096 0,89.936 -73.168,163.104 -163.104,163.104 z m 0,-294.192 c -72.288,0 -131.096,58.808 -131.096,131.096 0,72.288 58.808,131.096 131.096,131.096 C 421.184,476.001 480,417.185 480,344.897 480,272.609 421.184,213.809 348.896,213.809 Z"
     style="fill:#ffc590"
     inkscape:connector-curvature="0" /><g
     id="g10">
</g><g
     id="g12">
</g><g
     id="g14">
</g><g
     id="g16">
</g><g
     id="g18">
</g><g
     id="g20">
</g><g
     id="g22">
</g><g
     id="g24">
</g><g
     id="g26">
</g><g
     id="g28">
</g><g
     id="g30">
</g><g
     id="g32">
</g><g
     id="g34">
</g><g
     id="g36">
</g><g
     id="g38">
</g></g>
</svg>